<svg xmlns="http://www.w3.org/2000/svg" width="36.652" height="40" viewBox="0 0 36.652 40">
  <g id="_7594c090bb05a3f15f09db3532a2a92f" data-name="7594c090bb05a3f15f09db3532a2a92f" transform="translate(-1.502 -1)">
    <path id="Path_65372" data-name="Path 65372" d="M34.016,14.632,26.163,5.494a3.333,3.333,0,0,0-2.528-1.161H8.226A3.333,3.333,0,0,0,4.893,7.659L4.836,34.326a3.333,3.333,0,0,0,3.333,3.341H31.488a3.333,3.333,0,0,0,3.333-3.333V16.8A3.333,3.333,0,0,0,34.016,14.632ZM28.691,3.321l7.853,9.138A6.668,6.668,0,0,1,38.155,16.8V34.333A6.667,6.667,0,0,1,31.488,41H8.169A6.667,6.667,0,0,1,1.5,34.319L1.56,7.652A6.667,6.667,0,0,1,8.226,1H23.635A6.667,6.667,0,0,1,28.691,3.321Z" transform="translate(0)" fill="#fff" fill-rule="evenodd"/>
    <path id="Path_65373" data-name="Path 65373" d="M4.208,10.45A2.343,2.343,0,0,1,6.428,8H19.687A2.341,2.341,0,0,1,21.9,10.45V18.5a1.593,1.593,0,1,1-3.172,0v-7H7.38v7a1.674,1.674,0,0,1-1.586,1.75A1.674,1.674,0,0,1,4.208,18.5Z" transform="translate(6.765 15.5)" fill="#fff" fill-rule="evenodd"/>
  </g>
</svg>
