<svg xmlns="http://www.w3.org/2000/svg" width="44" height="44" viewBox="0 0 44 44">
  <g id="Group_20504" data-name="Group 20504" transform="translate(-666 -120)">
    <path id="Layer_2" data-name="Layer 2" d="M2,13V6.714A4.714,4.714,0,0,1,6.714,2H13a1.571,1.571,0,0,1,0,3.143H6.714A1.571,1.571,0,0,0,5.143,6.714V13A1.571,1.571,0,0,1,2,13ZM13,42.857H6.714a1.571,1.571,0,0,1-1.571-1.571V35A1.571,1.571,0,1,0,2,35v6.286A4.714,4.714,0,0,0,6.714,46H13a1.571,1.571,0,1,0,0-3.143ZM41.286,2H35a1.571,1.571,0,1,0,0,3.143h6.286a1.571,1.571,0,0,1,1.571,1.571V13A1.571,1.571,0,1,0,46,13V6.714A4.714,4.714,0,0,0,41.286,2Zm3.143,31.429A1.571,1.571,0,0,0,42.857,35v6.286a1.571,1.571,0,0,1-1.571,1.571H35A1.571,1.571,0,1,0,35,46h6.286A4.714,4.714,0,0,0,46,41.286V35A1.571,1.571,0,0,0,44.429,33.429Zm-11-17.286a1.571,1.571,0,0,0-2.78-1.006L24,23.117l-6.649-7.98a1.571,1.571,0,0,0-2.78,1.006V31.857a1.571,1.571,0,0,0,3.143,0V20.483l5.077,6.094a1.628,1.628,0,0,0,2.417,0l5.077-6.094V31.857a1.571,1.571,0,0,0,3.143,0Z" transform="translate(664 118)" fill="#fff"/>
  </g>
</svg>
