<svg xmlns="http://www.w3.org/2000/svg" width="45" height="45" viewBox="0 0 45 45">
  <g id="Group_20503" data-name="Group 20503" transform="translate(-665.5 -119.5)">
    <path id="db5d3a2637afbfdea9d003500ef4e9ba" d="M48,24.334v3.332a2.4,2.4,0,0,1-2.189,2.393.807.807,0,0,0-.731.594c-.084.47-.3.978-.858.966-.776-.053-.906-.731-.665-1.35a2.353,2.353,0,0,1,2.118-1.775.831.831,0,0,0,.755-.828V24.334a.834.834,0,0,0-.765-.828,2.356,2.356,0,0,1-2.113-1.795,17.541,17.541,0,0,0-2.106-5.09,2.383,2.383,0,0,1,.226-2.771.832.832,0,0,0-.049-1.115l-2.357-2.357a.812.812,0,0,0-1.115-.048,2.384,2.384,0,0,1-2.768.227,17.538,17.538,0,0,0-5.095-2.107,2.36,2.36,0,0,1-1.794-2.123.831.831,0,0,0-.827-.755H24.334a.834.834,0,0,0-.828.765,2.356,2.356,0,0,1-1.795,2.113,17.53,17.53,0,0,0-5.09,2.106,2.408,2.408,0,0,1-2.771-.226.832.832,0,0,0-1.115.049l-2.357,2.357a.811.811,0,0,0-.048,1.115,2.385,2.385,0,0,1,.227,2.768,17.549,17.549,0,0,0-2.107,5.095,2.36,2.36,0,0,1-2.123,1.794.831.831,0,0,0-.755.828v3.332a.834.834,0,0,0,.765.828,2.356,2.356,0,0,1,2.113,1.795l.089.34a.786.786,0,1,1-1.519.405c-.076-.461-.292-.946-.821-.975A2.4,2.4,0,0,1,4,27.666V24.334a2.4,2.4,0,0,1,2.189-2.393.807.807,0,0,0,.731-.594A19.106,19.106,0,0,1,9.215,15.8a.812.812,0,0,0-.09-.939,2.411,2.411,0,0,1,.142-3.236l2.357-2.357a2.413,2.413,0,0,1,3.237-.14.817.817,0,0,0,.948.083,19.081,19.081,0,0,1,5.538-2.289.8.8,0,0,0,.594-.721A2.4,2.4,0,0,1,24.334,4h3.332a2.4,2.4,0,0,1,2.393,2.189.807.807,0,0,0,.594.731A19.1,19.1,0,0,1,36.2,9.215a.81.81,0,0,0,.939-.09,2.459,2.459,0,0,1,3.236.142l2.357,2.357a2.414,2.414,0,0,1,.14,3.237.853.853,0,0,0-.2.539,27.407,27.407,0,0,1,2.406,5.946.8.8,0,0,0,.721.594A2.4,2.4,0,0,1,48,24.334ZM37.652,31.5a.786.786,0,0,0,.727-.488A13.128,13.128,0,0,0,39.357,26C38.626,8.285,13.376,8.28,12.643,26c0,1.057.4,6.116,2,5.441a.785.785,0,0,0,.428-1.025A11.563,11.563,0,0,1,14.214,26,11.8,11.8,0,0,1,26,14.214c8.182-.168,14.132,8.7,10.926,16.2a.79.79,0,0,0,.726,1.085Zm7.205,3.928V45.643A2.36,2.36,0,0,1,42.5,48H9.5a2.36,2.36,0,0,1-2.357-2.357V35.429A2.36,2.36,0,0,1,9.5,33.071h33a2.36,2.36,0,0,1,2.357,2.357Zm-1.571,0a.787.787,0,0,0-.786-.786H9.5a.787.787,0,0,0-.786.786V45.643a.787.787,0,0,0,.786.786h33a.787.787,0,0,0,.786-.786ZM29.261,38.556V44.5a.786.786,0,1,1-1.572,0V41.321H24.311V44.5a.786.786,0,1,1-1.572,0v-5.94a2.769,2.769,0,0,1,2.766-2.766h.99A2.769,2.769,0,0,1,29.261,38.556Zm-1.571,0a1.2,1.2,0,0,0-1.194-1.194h-.99a1.2,1.2,0,0,0-1.194,1.194V39.75h3.378Zm6.938,2.766H32.443V44.5a.786.786,0,1,1-1.572,0v-7.92a.786.786,0,0,1,.786-.786h2.97a2.766,2.766,0,1,1,0,5.532Zm0-3.96H32.443V39.75h2.184a1.194,1.194,0,1,0,0-2.389Zm-17.254,0h2.97a.786.786,0,1,0,0-1.572h-2.97a2.766,2.766,0,1,0,0,5.531h.99a1.194,1.194,0,1,1,0,2.389h-2.97a.786.786,0,0,0,0,1.571h2.97a2.766,2.766,0,1,0,0-5.532h-.99a1.194,1.194,0,1,1,0-2.389Z" transform="translate(662 116)" fill="#007382" stroke="#007382" stroke-width="1"/>
  </g>
</svg>
